<svg xmlns="http://www.w3.org/2000/svg" xmlns:xlink="http://www.w3.org/1999/xlink" height="600" preserveAspectRatio="xMidYMid meet" viewBox="0 0 512 512" width="800">
<g fill="#f7931e">
<svg class="icon" preserveAspectRatio="xMidYMid meet" version="1.0" viewBox="0 0 512 512">
<g>
<svg height="512" preserveAspectRatio="xMidYMid meet" width="512">
<svg version="1.1" viewBox="0 0 616 1103">
<path d="M0 0 C0.7 0.4 1.3 0.7 2 1.1 C57.6 34.1 79.1 127 94 185.4 C99 205.3 99 205.3 99 208 C99.7 208.1 100.5 208.2 101.2 208.3 C111.5 210.8 119.8 219.2 125.3 227.9 C130.7 237.4 132.2 246.5 132 257.2 C132 259.1 132 261 131.9 262.9 C131.9 263.9 131.9 264.9 131.9 265.9 C131.8 272.3 131.8 278.7 131.8 285.1 C131.8 290.8 131.7 296.4 131.6 302 C131.6 307.4 131.5 312.9 131.6 318.3 C131.5 320.4 131.5 322.5 131.5 324.5 C130.8 335.1 130.8 335.1 134.3 344.8 C137.7 348.4 141.7 350.6 146 353 C147.5 354.1 149 355.2 150.4 356.4 C151.7 357.3 153 358.3 154.2 359.3 C155.7 360.4 157.2 361.5 158.6 362.6 C159.3 363.2 160.1 363.8 160.8 364.3 C164.4 367.1 167.9 369.8 171.5 372.5 C172.2 373 172.9 373.6 173.6 374.1 C177.1 376.8 180.6 379.5 184.1 382.1 C191.9 388.1 199.7 394.1 207.5 400 C222.4 411.4 222.4 411.4 228.8 416.3 C232.3 419 235.9 421.7 239.4 424.3 C267.8 445.5 278.7 469.6 284 504 C284 512.9 284 521.8 284 531 C233.8 531 183.7 531 132 531 C132 553.8 132 576.5 132 600 C128.3 623.2 122.8 641.7 107 659 C106.3 659.8 105.5 660.6 104.8 661.4 C95.4 671.2 82.9 679.7 70 684 C70.9 684.2 71.8 684.3 72.8 684.5 C76.3 686.1 76.5 686.4 77.8 689.8 C78.3 691.4 78.7 693.1 79.2 694.7 C79.4 695.5 79.7 696.4 79.9 697.3 C80.7 699.8 81.3 702.4 82 705 C82.2 705.7 82.4 706.4 82.6 707.1 C86.4 722.1 87.1 736.9 80 751 C77.6 754.9 75 758.5 72 762 C71.5 762.6 70.9 763.3 70.4 763.9 C51 784.9 18.6 794.3 -9.1 795.9 C-10.5 796 -10.5 796 -12 796 C-13.2 796 -14.4 796.1 -15.6 796.1 C-50 796.7 -85.2 787.9 -110.5 763.6 C-120.3 753.4 -125.4 741.5 -125.4 727.3 C-125.2 717.2 -122.6 707.6 -120 698 C-119.8 697.3 -119.6 696.6 -119.5 695.9 C-117.6 688.6 -117.6 688.6 -116 686 C-112.9 684.7 -112.9 684.7 -110 684 C-111.1 683.5 -112.1 683 -113.2 682.5 C-138.1 670.3 -157.2 652.6 -167 626 C-176.5 595.4 -172 562.2 -172 531 C-222.2 531 -272.3 531 -324 531 C-324 500.4 -321.9 466 -300 442 C-299 440.8 -299 440.8 -297.9 439.7 C-291.3 432.7 -283.8 427.2 -276.1 421.6 C-272.6 419 -269.2 416.4 -265.8 413.8 C-264.4 412.7 -263 411.6 -261.6 410.5 C-260.5 409.6 -260.5 409.6 -259.3 408.8 C-255.1 405.5 -250.8 402.3 -246.5 399 C-238 392.5 -229.5 386.1 -221.1 379.6 C-216.8 376.3 -212.6 373.1 -208.4 369.9 C-204.8 367.1 -201.2 364.4 -197.6 361.6 C-196.5 360.8 -196.5 360.8 -195.3 359.9 C-194 358.9 -192.6 357.8 -191.2 356.8 C-190.3 356 -190.3 356 -189.3 355.3 C-188.4 354.5 -188.4 354.5 -187.4 353.8 C-185 352 -185 352 -182 350.5 C-177.7 348 -173.9 345.8 -172.3 340.9 C-171.2 334.6 -171.6 328.2 -171.7 321.8 C-171.7 319.7 -171.7 317.6 -171.7 315.5 C-171.7 310 -171.8 304.5 -171.9 299 C-172 290.3 -172 281.5 -172.1 272.7 C-172.1 269.7 -172.1 266.7 -172.2 263.6 C-172.4 245.9 -170 231.6 -157.4 218.3 C-152.6 213.8 -145.9 208 -139 208 C-138.8 207.1 -138.7 206.2 -138.5 205.3 C-136.6 195.4 -134.2 185.6 -131.6 175.8 C-131.2 174.6 -131.2 174.6 -130.9 173.4 C-126 155.4 -120.2 137.7 -114 120 C-113.8 119.4 -113.6 118.7 -113.3 118.1 C-99.2 77.5 -78.2 18.9 -37 -2 C-34 -3.3 -31.1 -4.2 -28 -5 C-26.9 -5.3 -25.8 -5.5 -24.7 -5.8 C-15.9 -6.3 -7.7 -4.2 0 0 Z M-122 347 C-124.5 350.7 -124.3 353.4 -124.3 357.7 C-124.3 358.5 -124.3 359.3 -124.3 360.1 C-124.3 362.7 -124.3 365.4 -124.3 368.1 C-124.3 370 -124.3 371.9 -124.3 373.8 C-124.3 378.9 -124.3 384.1 -124.3 389.3 C-124.3 393.6 -124.3 397.9 -124.4 402.2 C-124.4 412.4 -124.4 422.6 -124.4 432.8 C-124.4 443.3 -124.4 453.8 -124.4 464.3 C-124.4 473.3 -124.5 482.3 -124.5 491.4 C-124.5 496.8 -124.5 502.1 -124.5 507.5 C-124.5 512.6 -124.5 517.7 -124.5 522.7 C-124.5 524.6 -124.5 526.5 -124.5 528.3 C-124.5 530.9 -124.5 533.4 -124.5 535.9 C-124.5 537 -124.5 537 -124.5 538.2 C-124.5 543.2 -123.3 546.2 -120 550 C-116 552.4 -111.8 552.3 -107.2 552.3 C-106.1 552.3 -106.1 552.3 -104.9 552.3 C-102.3 552.3 -99.7 552.3 -97.1 552.3 C-95.2 552.3 -93.4 552.3 -91.5 552.3 C-86.4 552.3 -81.4 552.3 -76.3 552.3 C-72.1 552.3 -67.9 552.3 -63.7 552.3 C-53.7 552.3 -43.7 552.3 -33.8 552.3 C-23.5 552.3 -13.2 552.3 -2.9 552.3 C5.9 552.4 14.7 552.4 23.5 552.4 C28.8 552.4 34.1 552.4 39.3 552.4 C44.3 552.4 49.2 552.4 54.2 552.4 C56 552.4 57.8 552.4 59.7 552.4 C62.1 552.4 64.6 552.4 67.1 552.4 C67.8 552.4 68.5 552.4 69.3 552.4 C73.9 552.3 77.1 551.6 81 549 C84.4 545 84.4 541.1 84.4 536.1 C84.4 535.3 84.4 534.5 84.4 533.7 C84.4 531 84.4 528.4 84.4 525.7 C84.4 523.8 84.4 521.9 84.4 520 C84.4 514.8 84.4 509.7 84.4 504.5 C84.4 500.2 84.4 495.9 84.4 491.5 C84.5 481.4 84.5 471.2 84.4 461 C84.4 450.5 84.4 440 84.5 429.5 C84.5 420.5 84.5 411.5 84.5 402.5 C84.5 397.1 84.5 391.7 84.5 386.3 C84.5 381.2 84.5 376.2 84.5 371.1 C84.5 369.3 84.5 367.4 84.5 365.5 C84.5 363 84.5 360.5 84.5 357.9 C84.5 357.2 84.5 356.5 84.5 355.7 C84.5 352.2 84.1 350.1 82.2 347.1 C77.8 342.9 74.2 342.7 68.3 342.7 C67.1 342.7 67.1 342.7 65.9 342.7 C63.3 342.7 60.6 342.7 58 342.7 C56.1 342.7 54.3 342.7 52.4 342.7 C47.3 342.7 42.1 342.7 37 342.7 C32.8 342.7 28.5 342.7 24.2 342.6 C14.1 342.6 4.1 342.6 -6 342.6 C-16.4 342.6 -26.8 342.6 -37.2 342.6 C-46.1 342.6 -55 342.5 -63.9 342.5 C-69.3 342.5 -74.6 342.5 -79.9 342.5 C-84.9 342.5 -90 342.5 -95 342.5 C-96.8 342.5 -98.6 342.5 -100.5 342.5 C-103 342.5 -105.5 342.5 -108 342.5 C-108.7 342.5 -109.5 342.5 -110.2 342.5 C-115.3 342.5 -118.1 343.8 -122 347 Z " fill="#020202" transform="translate(328,10)"/>
<path d="M0 0 C10.6 9.1 17.2 20.3 20.3 34 C21.5 51.8 18.7 69.4 16.2 87 C15.8 89.4 15.5 91.8 15.2 94.2 C-5.5 241.7 -5.5 241.7 -23.7 260 C-26.5 260.5 -26.5 260.5 -29.7 260 C-60.4 232.2 -61.1 145.4 -66.7 107 C-66.9 105.8 -67.1 104.6 -67.2 103.4 C-68.3 96.4 -69.3 89.4 -70.3 82.4 C-70.6 80.2 -70.9 78 -71.2 75.8 C-72.7 65 -74 54.4 -74 43.5 C-74 42.6 -74.1 41.8 -74.1 40.9 C-73.9 26.7 -67.6 14.1 -58 3.7 C-41 -12.2 -18.7 -14 0 0 Z " fill="#040404" transform="translate(334.7265625,839.04296875)"/>
</svg>
</svg>
</g>
</svg>
</g>
</svg>
