<?xml version="1.0" encoding="UTF-8"?>
<svg width="16px" height="16px" viewBox="0 0 16 16" version="1.1" xmlns="http://www.w3.org/2000/svg" xmlns:xlink="http://www.w3.org/1999/xlink">
    <title>icon-monitor</title>
    <g id="页面-1" stroke="none" stroke-width="1" fill="none" fill-rule="evenodd">
        <g id="产品管理-产品详情" transform="translate(-32.000000, -426.000000)" fill="#B3B8C1">
            <g id="5" transform="translate(32.000000, 425.000000)">
                <g id="icon-monitor" transform="translate(0.000000, 1.000000)">
                    <path d="M14.5992,0 C15.3722,0 16.0002,0.627 16.0002,1.401 L16.0002,10.599 C16.0002,11.373 15.3722,12 14.5992,12 L8.7001,12 L8.6992,14.107 L10.5001,14.1071 C10.8866993,14.1071 11.2001,14.4205007 11.2001,14.8071 C11.2001,15.1614827 10.9367564,15.4543582 10.5950859,15.5007098 L10.5001,15.5071 L5.5001,15.5071 C5.11350068,15.5071 4.8001,15.1936993 4.8001,14.8071 C4.8001,14.4527173 5.06344362,14.1598418 5.40511415,14.1134902 L5.5001,14.1071 L7.2992,14.107 L7.3001,12 L1.4012,12 C0.6272,12 0.0002,11.373 0.0002,10.599 L0.0002,1.401 C0.0002,0.627 0.6272,0 1.4012,0 L14.5992,0 Z M12.3428,3.6414 C11.7988,3.6414 11.3578,4.0824 11.3578,4.6264 C11.3578,4.68668304 11.3632154,4.74570127 11.3735863,4.80299472 L11.3928017,4.88758383 L9.19196286,6.91132271 C9.1251685,6.89702538 9.05586306,6.8895 8.9848,6.8895 L8.89754002,6.89331221 L8.89754002,6.89331221 L8.81240603,6.90453532 L7.1931052,5.19576672 C7.21688337,5.11098462 7.2296,5.02157736 7.2296,4.9292 C7.2296,4.3852 6.7886,3.9442 6.2446,3.9442 C5.7006,3.9442 5.2596,4.3852 5.2596,4.9292 L5.2652042,5.03489287 L5.2652042,5.03489287 L5.28163449,5.13734978 L3.26748584,6.97467749 C3.18943148,6.95477769 3.107651,6.9442 3.0234,6.9442 C2.4794,6.9442 2.0384,7.3852 2.0384,7.9292 C2.0384,8.4732 2.4794,8.9142 3.0234,8.9142 C3.5674,8.9142 4.0084,8.4732 4.0084,7.9292 L4.00041003,7.80314926 L4.00041003,7.80314926 L3.97709424,7.68188835 L5.95893597,5.87213886 C6.04935022,5.8994935 6.14525768,5.9142 6.2446,5.9142 L6.35947172,5.90757318 L6.35947172,5.90757318 L6.47045131,5.88818542 L8.05212407,7.55690222 C8.01820169,7.65654957 7.9998,7.76337583 7.9998,7.8745 C7.9998,8.4185 8.4408,8.8595 8.9848,8.8595 C9.5288,8.8595 9.9698,8.4185 9.9698,7.8745 C9.9698,7.80985915 9.96357334,7.74667259 9.9516871,7.68550741 L9.92968394,7.59534655 L12.1128468,5.58441378 C12.1866209,5.60205717 12.2636194,5.6114 12.3428,5.6114 C12.8868,5.6114 13.3278,5.1704 13.3278,4.6264 C13.3278,4.0824 12.8868,3.6414 12.3428,3.6414 Z" id="形状结合"></path>
                </g>
            </g>
        </g>
    </g>
</svg>