<svg height="600" version="1.1" width="800" xmlns="http://www.w3.org/2000/svg" preserveAspectRatio="xMidYMid meet" viewBox="0 0 600 442" xmlns:xlink="http://www.w3.org/1999/xlink"><desc>Created with Snap</desc><defs/><g id="root" contentwidth="473" contentheight="74.7">
          <rect class="background" height="2000%" width="2000%" y="-1000%" x="-1000%" style="" fill="#ffffff"/>
          <g class="content" id="content" transform="matrix(1,0,0,1,149.2,246.7)">
            <g class="icon" style="mask: url(#mask);">
            <svg height="74.7" version="1.1" width="74.7" xmlns="http://www.w3.org/2000/svg" x="-85.7" y="-63.05"><desc>Created with Snap</desc><defs/><svg xmlns="http://www.w3.org/2000/svg" xmlns:xlink="http://www.w3.org/1999/xlink" preserveAspectRatio="xMidYMid meet" viewBox="0 0 512 512">
<g fill="#009fdc" style="">
<svg class="icon" preserveAspectRatio="xMidYMid meet" version="1.0" viewBox="0 0 512 512">
<g>
<svg height="512" preserveAspectRatio="xMidYMid meet" width="512">
<svg version="1.1" viewBox="0 0 616 1103">
<path d="M0 0 C0.7 0.4 1.3 0.7 2 1.1 C57.6 34.1 79.1 127 94 185.4 C99 205.3 99 205.3 99 208 C99.7 208.1 100.5 208.2 101.2 208.3 C111.5 210.8 119.8 219.2 125.3 227.9 C130.7 237.4 132.2 246.5 132 257.2 C132 259.1 132 261 131.9 262.9 C131.9 263.9 131.9 264.9 131.9 265.9 C131.8 272.3 131.8 278.7 131.8 285.1 C131.8 290.8 131.7 296.4 131.6 302 C131.6 307.4 131.5 312.9 131.6 318.3 C131.5 320.4 131.5 322.5 131.5 324.5 C130.8 335.1 130.8 335.1 134.3 344.8 C137.7 348.4 141.7 350.6 146 353 C147.5 354.1 149 355.2 150.4 356.4 C151.7 357.3 153 358.3 154.2 359.3 C155.7 360.4 157.2 361.5 158.6 362.6 C159.3 363.2 160.1 363.8 160.8 364.3 C164.4 367.1 167.9 369.8 171.5 372.5 C172.2 373 172.9 373.6 173.6 374.1 C177.1 376.8 180.6 379.5 184.1 382.1 C191.9 388.1 199.7 394.1 207.5 400 C222.4 411.4 222.4 411.4 228.8 416.3 C232.3 419 235.9 421.7 239.4 424.3 C267.8 445.5 278.7 469.6 284 504 C284 512.9 284 521.8 284 531 C233.8 531 183.7 531 132 531 C132 553.8 132 576.5 132 600 C128.3 623.2 122.8 641.7 107 659 C106.3 659.8 105.5 660.6 104.8 661.4 C95.4 671.2 82.9 679.7 70 684 C70.9 684.2 71.8 684.3 72.8 684.5 C76.3 686.1 76.5 686.4 77.8 689.8 C78.3 691.4 78.7 693.1 79.2 694.7 C79.4 695.5 79.7 696.4 79.9 697.3 C80.7 699.8 81.3 702.4 82 705 C82.2 705.7 82.4 706.4 82.6 707.1 C86.4 722.1 87.1 736.9 80 751 C77.6 754.9 75 758.5 72 762 C71.5 762.6 70.9 763.3 70.4 763.9 C51 784.9 18.6 794.3 -9.1 795.9 C-10.5 796 -10.5 796 -12 796 C-13.2 796 -14.4 796.1 -15.6 796.1 C-50 796.7 -85.2 787.9 -110.5 763.6 C-120.3 753.4 -125.4 741.5 -125.4 727.3 C-125.2 717.2 -122.6 707.6 -120 698 C-119.8 697.3 -119.6 696.6 -119.5 695.9 C-117.6 688.6 -117.6 688.6 -116 686 C-112.9 684.7 -112.9 684.7 -110 684 C-111.1 683.5 -112.1 683 -113.2 682.5 C-138.1 670.3 -157.2 652.6 -167 626 C-176.5 595.4 -172 562.2 -172 531 C-222.2 531 -272.3 531 -324 531 C-324 500.4 -321.9 466 -300 442 C-299 440.8 -299 440.8 -297.9 439.7 C-291.3 432.7 -283.8 427.2 -276.1 421.6 C-272.6 419 -269.2 416.4 -265.8 413.8 C-264.4 412.7 -263 411.6 -261.6 410.5 C-260.5 409.6 -260.5 409.6 -259.3 408.8 C-255.1 405.5 -250.8 402.3 -246.5 399 C-238 392.5 -229.5 386.1 -221.1 379.6 C-216.8 376.3 -212.6 373.1 -208.4 369.9 C-204.8 367.1 -201.2 364.4 -197.6 361.6 C-196.5 360.8 -196.5 360.8 -195.3 359.9 C-194 358.9 -192.6 357.8 -191.2 356.8 C-190.3 356 -190.3 356 -189.3 355.3 C-188.4 354.5 -188.4 354.5 -187.4 353.8 C-185 352 -185 352 -182 350.5 C-177.7 348 -173.9 345.8 -172.3 340.9 C-171.2 334.6 -171.6 328.2 -171.7 321.8 C-171.7 319.7 -171.7 317.6 -171.7 315.5 C-171.7 310 -171.8 304.5 -171.9 299 C-172 290.3 -172 281.5 -172.1 272.7 C-172.1 269.7 -172.1 266.7 -172.2 263.6 C-172.4 245.9 -170 231.6 -157.4 218.3 C-152.6 213.8 -145.9 208 -139 208 C-138.8 207.1 -138.7 206.2 -138.5 205.3 C-136.6 195.4 -134.2 185.6 -131.6 175.8 C-131.2 174.6 -131.2 174.6 -130.9 173.4 C-126 155.4 -120.2 137.7 -114 120 C-113.8 119.4 -113.6 118.7 -113.3 118.1 C-99.2 77.5 -78.2 18.9 -37 -2 C-34 -3.3 -31.1 -4.2 -28 -5 C-26.9 -5.3 -25.8 -5.5 -24.7 -5.8 C-15.9 -6.3 -7.7 -4.2 0 0 Z M-122 347 C-124.5 350.7 -124.3 353.4 -124.3 357.7 C-124.3 358.5 -124.3 359.3 -124.3 360.1 C-124.3 362.7 -124.3 365.4 -124.3 368.1 C-124.3 370 -124.3 371.9 -124.3 373.8 C-124.3 378.9 -124.3 384.1 -124.3 389.3 C-124.3 393.6 -124.3 397.9 -124.4 402.2 C-124.4 412.4 -124.4 422.6 -124.4 432.8 C-124.4 443.3 -124.4 453.8 -124.4 464.3 C-124.4 473.3 -124.5 482.3 -124.5 491.4 C-124.5 496.8 -124.5 502.1 -124.5 507.5 C-124.5 512.6 -124.5 517.7 -124.5 522.7 C-124.5 524.6 -124.5 526.5 -124.5 528.3 C-124.5 530.9 -124.5 533.4 -124.5 535.9 C-124.5 537 -124.5 537 -124.5 538.2 C-124.5 543.2 -123.3 546.2 -120 550 C-116 552.4 -111.8 552.3 -107.2 552.3 C-106.1 552.3 -106.1 552.3 -104.9 552.3 C-102.3 552.3 -99.7 552.3 -97.1 552.3 C-95.2 552.3 -93.4 552.3 -91.5 552.3 C-86.4 552.3 -81.4 552.3 -76.3 552.3 C-72.1 552.3 -67.9 552.3 -63.7 552.3 C-53.7 552.3 -43.7 552.3 -33.8 552.3 C-23.5 552.3 -13.2 552.3 -2.9 552.3 C5.9 552.4 14.7 552.4 23.5 552.4 C28.8 552.4 34.1 552.4 39.3 552.4 C44.3 552.4 49.2 552.4 54.2 552.4 C56 552.4 57.8 552.4 59.7 552.4 C62.1 552.4 64.6 552.4 67.1 552.4 C67.8 552.4 68.5 552.4 69.3 552.4 C73.9 552.3 77.1 551.6 81 549 C84.4 545 84.4 541.1 84.4 536.1 C84.4 535.3 84.4 534.5 84.4 533.7 C84.4 531 84.4 528.4 84.4 525.7 C84.4 523.8 84.4 521.9 84.4 520 C84.4 514.8 84.4 509.7 84.4 504.5 C84.4 500.2 84.4 495.9 84.4 491.5 C84.5 481.4 84.5 471.2 84.4 461 C84.4 450.5 84.4 440 84.5 429.5 C84.5 420.5 84.5 411.5 84.5 402.5 C84.5 397.1 84.5 391.7 84.5 386.3 C84.5 381.2 84.5 376.2 84.5 371.1 C84.5 369.3 84.5 367.4 84.5 365.5 C84.5 363 84.5 360.5 84.5 357.9 C84.5 357.2 84.5 356.5 84.5 355.7 C84.5 352.2 84.1 350.1 82.2 347.1 C77.8 342.9 74.2 342.7 68.3 342.7 C67.1 342.7 67.1 342.7 65.9 342.7 C63.3 342.7 60.6 342.7 58 342.7 C56.1 342.7 54.3 342.7 52.4 342.7 C47.3 342.7 42.1 342.7 37 342.7 C32.8 342.7 28.5 342.7 24.2 342.6 C14.1 342.6 4.1 342.6 -6 342.6 C-16.4 342.6 -26.8 342.6 -37.2 342.6 C-46.1 342.6 -55 342.5 -63.9 342.5 C-69.3 342.5 -74.6 342.5 -79.9 342.5 C-84.9 342.5 -90 342.5 -95 342.5 C-96.8 342.5 -98.6 342.5 -100.5 342.5 C-103 342.5 -105.5 342.5 -108 342.5 C-108.7 342.5 -109.5 342.5 -110.2 342.5 C-115.3 342.5 -118.1 343.8 -122 347 Z " fill="#006eb8" transform="translate(328,10)" style=""/>
<path d="M0 0 C10.6 9.1 17.2 20.3 20.3 34 C21.5 51.8 18.7 69.4 16.2 87 C15.8 89.4 15.5 91.8 15.2 94.2 C-5.5 241.7 -5.5 241.7 -23.7 260 C-26.5 260.5 -26.5 260.5 -29.7 260 C-60.4 232.2 -61.1 145.4 -66.7 107 C-66.9 105.8 -67.1 104.6 -67.2 103.4 C-68.3 96.4 -69.3 89.4 -70.3 82.4 C-70.6 80.2 -70.9 78 -71.2 75.8 C-72.7 65 -74 54.4 -74 43.5 C-74 42.6 -74.1 41.8 -74.1 40.9 C-73.9 26.7 -67.6 14.1 -58 3.7 C-41 -12.2 -18.7 -14 0 0 Z " fill="#009fdc" transform="translate(334.7265625,839.04296875)" style=""/>
<desc>Created with Snap</desc><defs/></svg>
<desc>Created with Snap</desc><defs/></svg>
</g>
<desc>Created with Snap</desc><defs/></svg>
</g>
<desc>Created with Snap</desc><defs/></svg></svg></g>
            <g id="icon_name_and_slogan_gap">
            </g>
            <g class="name_and_slogan" id="name_and_slogan_id">
              <g class="name"><g id="nameDefaultGroup"><path d="M5.1 -3.8Q3.6 -4.2 3.6 -5.7L3.6 -5.7Q3.6 -6.7 4.2 -8.5L4.2 -8.5Q4.6 -9.7 4.6 -10.2L4.6 -10.2Q4.6 -11.2 3.9 -11.9Q3.1 -12.6 1.5 -13.6L1.5 -13.6L1.8 -14.9Q6 -12.6 10.8 -11.7Q15.5 -10.7 19.4 -10.7L19.4 -10.7Q25.4 -10.7 25.4 -13L25.4 -13Q25.4 -14 23.5 -14.6Q21.6 -15.1 17.5 -15.8L17.5 -15.8Q2.7 -18.1 2.6 -23.8L2.6 -23.8Q2.3 -28 5.5 -30.9Q8.6 -33.8 13.3 -35.2Q18 -36.6 22.3 -36.3L22.3 -36.3Q25.2 -36.2 28.8 -36.2L28.8 -36.2Q31.9 -36.2 33.4 -36.5L33.4 -36.5Q34.2 -36.6 34.5 -36.6L34.5 -36.6Q35.8 -36.2 36 -34.1L36 -34.1Q36.6 -34 37.2 -33.3Q37.8 -32.6 37.7 -31.7L37.7 -31.7Q37.5 -30.3 36.8 -29.6Q36 -28.8 35.3 -28.8L35.3 -28.8Q35.4 -28.6 35.7 -28.4Q36 -28.1 36 -27.8L36 -27.8Q36 -27.6 35.5 -27L35.5 -27Q35.4 -26.6 35.6 -25.2Q35.8 -23.8 35.8 -23.6L35.8 -23.6L35 -23.4L34.6 -26.3L34.1 -26.2L34.6 -23.4L33.8 -23.1L33.4 -26.2L32.9 -25.9L33.4 -23.1L32.6 -23Q32.3 -24.6 32.1 -25.2Q31.8 -25.9 31.4 -26.2Q31 -26.5 29.8 -27L29.8 -27Q26.2 -28.4 21 -28.4L21 -28.4Q18.8 -28.4 17.2 -27.9Q15.5 -27.4 15.5 -26.4L15.5 -26.4Q15.5 -25.4 17.2 -24.9Q18.8 -24.4 22.8 -23.9L22.8 -23.9Q28.7 -23.3 33.4 -21.2Q38.1 -19 38.2 -14.6L38.2 -14.6Q38.5 -8.1 32.6 -5.5Q26.7 -3 16.7 -2.5L16.7 -2.5L16.6 -2.5Q16.2 -2.5 16 -2.7Q15.8 -3 15.8 -3.2L15.8 -3.2Q15.8 -3.7 16.2 -3.7L16.2 -3.7L17.4 -3.7Q18 -3.7 18 -4.1L18 -4.1Q18 -4.6 16.8 -4.6L16.8 -4.6Q13.7 -4.6 10.9 -5.1L10.9 -5.1L10.6 -5.1Q10.1 -5.1 10 -4.7Q10 -4.3 10.4 -4.2L10.4 -4.2Q11.9 -3.8 14.2 -3.7L14.2 -3.7Q14.6 -3.6 14.8 -3.4Q15 -3.2 15 -3L15 -3Q15 -2.5 14.1 -2.5L14.1 -2.5Q12.3 -2.6 9.6 -2.9Q7 -3.3 5.1 -3.8L5.1 -3.8M48.2 -20.5Q48.2 -25.4 47.4 -27.4L47.4 -27.4Q46.7 -28.6 45.2 -29.4Q43.8 -30.3 40.2 -31.4L40.2 -31.4L40.7 -32.6L45.7 -30.8L45.7 -31.7L41 -33.2L41.4 -34.2L46 -32.8L46.4 -33.5L41.8 -34.8L42.3 -35.8L47.5 -34.5Q47.9 -34.6 48.8 -34.6L48.8 -34.6Q49.6 -34.6 49.9 -34.6L49.9 -34.6Q50.1 -35.9 51.5 -36.8L51.5 -36.8Q52.6 -37.4 53.8 -37.4L53.8 -37.4Q55.7 -37.4 56.7 -36.3L56.7 -36.3Q58.2 -35 58.2 -34.2L58.2 -34.2Q60.6 -33.6 60.6 -31.9L60.6 -31.9Q60.6 -31.4 60.6 -31L60.6 -31Q63.4 -33.6 66.3 -34.6Q69.2 -35.6 72.9 -35.6L72.9 -35.6Q77.3 -35.6 79.6 -34.1Q81.8 -32.6 82.7 -29.8L82.7 -29.8Q87 -33.4 90 -34.6Q93 -35.8 97 -35.8L97 -35.8Q107.4 -35.8 107.4 -21.8L107.4 -21.8L107.4 -5.8Q105.6 -4.6 103.2 -3.8Q100.8 -3 98.9 -3L98.9 -3Q95.2 -3 95.2 -5.9L95.2 -5.9L95.3 -20Q95.2 -23.3 94.7 -24.6Q94.2 -25.8 93 -25.8L93 -25.8Q91.2 -25.8 89.3 -24.2Q87.4 -22.6 83.4 -17.3L83.4 -17.3L83.4 -5.8Q81.6 -4.6 79.2 -3.8Q76.8 -3 74.9 -3L74.9 -3Q71.2 -3 71.2 -5.9L71.2 -5.9L71.3 -20Q71.2 -23.3 70.7 -24.6Q70.2 -25.8 69 -25.8L69 -25.8Q67.4 -25.8 65.6 -24.4Q63.8 -23 60.4 -18.6L60.4 -18.6L60.4 -6Q58.4 -4.7 56 -3.9Q53.6 -3.1 51.8 -3.1L51.8 -3.1Q48.2 -3.1 48.2 -6.1L48.2 -6.1L48.2 -20.5M110.6 -12.2Q110.6 -15 112 -17.2Q113.4 -19.4 115.8 -20.8L115.8 -20.8L116.5 -23.8L115.8 -24L115.3 -20.6L114.3 -20.8L115 -24.2L114.4 -24.2L113.8 -20.9L113 -21Q113.7 -24.5 113.4 -25L113.4 -25Q112.8 -25.6 112.8 -26.2L112.8 -26.2Q112.8 -26.7 113.2 -27.1Q113.6 -27.5 113.7 -27.7L113.7 -27.7Q112.7 -27.7 111.9 -28.3Q111 -29 110.8 -30.5L110.8 -30.5Q110.7 -31.5 111.4 -32.4Q112.1 -33.2 112.8 -33.4L112.8 -33.4Q112.9 -34.3 113.3 -35.1Q113.8 -35.9 114.6 -36.2L114.6 -36.2L115 -36.2Q115.5 -36.2 115.8 -36.1L115.8 -36.1Q116.8 -35.9 117.6 -35.9L117.6 -35.9Q118.9 -35.9 120.5 -36Q122.1 -36.2 123.9 -36.2L123.9 -36.2Q124.6 -36.3 125.8 -36.4Q126.9 -36.5 128.6 -36.6L128.6 -36.6Q129.3 -36.6 130.7 -36.6L130.7 -36.6Q138.2 -36.6 142.7 -32.5Q147.1 -28.3 147.2 -21.1L147.2 -21.1L147.2 -20.2L147 -13Q147.2 -11.8 147.6 -11.4Q147.9 -10.9 148.8 -10.9L148.8 -10.9Q149.8 -10.9 151.6 -11.4L151.6 -11.4L151.9 -10.5Q151.7 -10.3 150.8 -9.9Q149.9 -9.4 149.4 -8.8Q149 -8.2 149.4 -7.6L149.4 -7.6Q149.8 -7 149.8 -5.9L149.8 -5.9Q149.8 -4.6 149 -3.4Q148.3 -2.2 146.7 -1.9L146.7 -1.9Q145.8 -1.7 144.8 -1.6Q143.8 -1.6 143.2 -1.7L143.2 -1.7Q142.9 -1.8 142.7 -2Q142.5 -2.2 142.5 -2.3L142.5 -2.3Q142.5 -2.6 142.6 -2.8Q142.8 -3 143.1 -3L143.1 -3Q145 -3 146.5 -3.2L146.5 -3.2Q146.9 -3.4 146.9 -3.8L146.9 -3.8Q146.9 -4.1 146.5 -4.3Q146.2 -4.5 145.5 -4.4L145.5 -4.4Q145 -4.3 143.9 -4.3L143.9 -4.3Q142.2 -4.3 141 -4.6L141 -4.6Q140.6 -4.6 140.2 -4.6L140.2 -4.6Q139.5 -4.6 139.4 -4.3L139.4 -4.3L139.4 -4.1Q139.4 -3.6 140 -3.4L140 -3.4L141.2 -3.2Q141.5 -3.2 141.5 -2.6L141.5 -2.6Q141.5 -2 140.9 -2.1L140.9 -2.1Q138.6 -2.2 137.1 -3.1Q135.6 -3.9 134.6 -6.9L134.6 -6.9Q134.1 -6.6 132.7 -5.9L132.7 -5.9Q130.2 -4.6 127.8 -3.8Q125.4 -3 121.9 -3L121.9 -3Q117.8 -3 114.2 -5Q110.6 -6.9 110.6 -12.2L110.6 -12.2M127.6 -23.3Q132.4 -23 134.6 -23L134.6 -23L134.6 -23.6Q134.6 -25.7 132.8 -26.7Q130.9 -27.8 128 -27.8L128 -27.8Q125 -27.8 122.2 -26.8L122.2 -26.8Q119.3 -25.8 118.3 -24.8Q117.4 -23.7 116.9 -21.4L116.9 -21.4Q121.4 -23.5 127.6 -23.3L127.6 -23.3M126.1 -10.8Q128.8 -10.8 134.4 -14.3L134.4 -14.3L134.4 -15.5Q131.8 -16.7 128.9 -16.7L128.9 -16.7Q126.6 -16.7 125.2 -15.8Q123.8 -14.9 123.8 -13.1L123.8 -13.1Q123.8 -10.8 126.1 -10.8L126.1 -10.8M157.8 -20.5Q157.8 -25.4 156.9 -27.4L156.9 -27.4Q156.2 -28.6 154.8 -29.4Q153.3 -30.3 149.7 -31.4L149.7 -31.4L150.2 -32.6L155.2 -30.8L155.2 -31.7L150.5 -33.2L151 -34.2L155.5 -32.8L155.9 -33.5L151.3 -34.8L151.8 -35.8L157 -34.5Q157.4 -34.6 158.3 -34.6L158.3 -34.6Q159.1 -34.6 159.4 -34.6L159.4 -34.6Q159.6 -35.9 161 -36.8L161 -36.8Q162.2 -37.4 163.4 -37.4L163.4 -37.4Q165.2 -37.4 166.2 -36.3L166.2 -36.3Q167.8 -35 167.7 -34.2L167.7 -34.2Q170.2 -33.6 170.2 -31.9L170.2 -31.9Q170.2 -31.1 169.7 -30L169.7 -30Q169.5 -29.6 169.5 -28.8L169.5 -28.8Q169.5 -28.1 169.6 -27.8L169.6 -27.8Q173.6 -30.5 177.7 -31.9L177.7 -31.9Q178.3 -32.2 178.3 -32.6L178.3 -32.6Q178.3 -33 178 -33.1Q177.7 -33.3 177.2 -33.1L177.2 -33.1Q174.2 -32 172.3 -30.9L172.3 -30.9Q171.8 -30.6 171.5 -30.5Q171.2 -30.5 171 -30.8L171 -30.8Q170.9 -31.1 170.9 -31.2L170.9 -31.2Q170.9 -31.5 171.5 -31.9L171.5 -31.9Q172.9 -32.8 176.6 -34.3Q180.4 -35.8 184.6 -36.5L184.6 -36.5Q184.8 -36.6 185.3 -36.6L185.3 -36.6Q186.8 -36.6 187.8 -35.4Q188.7 -34.3 188.7 -32.5L188.7 -32.5Q188.7 -28.5 193.8 -29L193.8 -29Q194 -28.2 193.9 -26.8L193.9 -26.8Q184 -26.2 175.3 -22L175.3 -22Q174.7 -21.7 173.2 -20.9Q171.6 -20.2 169.9 -19.1L169.9 -19.1L169.9 -5.2Q167.9 -3.9 165.5 -3.1Q163.1 -2.3 161.3 -2.3L161.3 -2.3Q157.8 -2.3 157.8 -5.3L157.8 -5.3L157.8 -20.5M204 -12Q203.7 -15.5 203.7 -22.5L203.7 -22.5Q203.6 -23.6 203.6 -25.8L203.6 -25.8Q200.2 -25.1 197.4 -25.1L197.4 -25.1Q196.1 -25.1 195 -26.2Q193.9 -27.2 193.9 -28.6L193.9 -28.6Q193.9 -30.5 196.3 -31.7L196.3 -31.7L191.8 -33.9L192.6 -34.7L197 -32.6L197.7 -33.3L192.9 -35.4L193.4 -36.4L198.3 -34.2L198.9 -34.8L193.9 -37L194.5 -37.8L199.5 -35.9Q200.9 -35.5 203.2 -35.5L203.2 -35.5Q203.1 -37.3 202.6 -38.6L202.6 -38.6Q202.2 -39.4 202.2 -40.1L202.2 -40.1Q202.2 -41.1 203.1 -41.8Q204 -42.4 205.3 -42.7L205.3 -42.7Q205.2 -43.7 206.1 -44.6Q207 -45.6 208.3 -45.7L208.3 -45.7Q211.8 -45.8 212.5 -43L212.5 -43Q212.9 -43.5 213.8 -44Q214.7 -44.4 215.7 -44.4L215.7 -44.4Q216.5 -44.4 217.3 -44L217.3 -44Q217.8 -43.8 219.4 -44.3Q221 -44.8 222 -45.2L222 -45.2L222.6 -44.2L218.4 -42.9L218.8 -42.2L222.7 -43.7L223.2 -42.7L219.1 -41.4L219.5 -40.6L223.4 -42.1L223.9 -41.1Q220.3 -39.8 219.1 -39Q217.8 -38.1 217.4 -36L217.4 -36Q217 -33.9 217 -34.2L217 -34.2L221.3 -34.2Q221.5 -34.2 221.7 -34.4Q221.8 -34.6 221.8 -34.8L221.8 -34.8Q221.8 -35.3 221.4 -35.3L221.4 -35.3L219.3 -35.3Q218.6 -35.3 218.6 -35.9L218.6 -35.9Q218.6 -36.2 218.8 -36.3Q219 -36.5 219.3 -36.5L219.3 -36.5L224 -36.5Q225.1 -37.9 227 -37.9L227 -37.9Q228.2 -37.9 229 -37.2Q229.9 -36.4 229.9 -35.3L229.9 -35.3Q229.9 -34 229 -32.8L229 -32.8Q231.2 -30.8 231.2 -28.9L231.2 -28.9Q231.2 -27.5 230 -26.6Q228.7 -25.8 226.7 -25.8L226.7 -25.8Q225.8 -25.8 224.4 -26Q223.1 -26.2 222.6 -26.2L222.6 -26.2Q219.2 -26.8 216.6 -27.1L216.6 -27.1Q216.6 -23 216.6 -20.9L216.6 -20.9Q216.8 -16.9 218.4 -14.8Q219.9 -12.6 223.6 -12.6L223.6 -12.6Q228.3 -12.6 235.1 -16.7L235.1 -16.7L235.4 -15.2Q233.4 -13.7 232.4 -11.4Q231.4 -9.1 231.4 -7.4L231.4 -7.4Q231.4 -5.5 231.1 -4.6Q230.9 -3.6 229.9 -2.9Q228.9 -2.2 226.7 -1.8L226.7 -1.8Q224.7 -1.4 222.2 -1.1Q219.8 -0.8 218.8 -0.8L218.8 -0.8Q217.4 -0.8 217.4 -1.6L217.4 -1.6Q217.4 -2 217.7 -2.3Q218.1 -2.6 218.6 -2.6L218.6 -2.6Q220.8 -2.6 222.7 -3L222.7 -3Q223.4 -3.1 223.4 -3.7L223.4 -3.7Q223.4 -4 223.1 -4.2Q222.8 -4.5 222.2 -4.4L222.2 -4.4Q220.6 -4.1 218.6 -4.1L218.6 -4.1Q217.6 -4.1 215 -4.2L215 -4.2Q214.2 -4.2 213.8 -4.1Q213.4 -4 213.4 -3.7L213.4 -3.7L213.4 -3.5Q213.4 -3.1 214 -2.9L214 -2.9Q214.1 -2.9 215.7 -2.7L215.7 -2.7Q216.2 -2.7 216.2 -1.9L216.2 -1.9Q216.2 -1.5 216 -1.2Q215.7 -1 215.2 -1L215.2 -1Q213.3 -1 210.8 -2.2Q208.3 -3.4 206.3 -5.8Q204.3 -8.3 204 -12L204 -12M245.1 -6.7L239.7 -22.5Q238.3 -26.2 237.4 -27.1L237.4 -27.1Q236.8 -27.9 235.5 -28.3Q234.2 -28.6 231.4 -28.7L231.4 -28.7L231.6 -29.6L235.4 -29.4L235.1 -30.1L231.5 -30.2L231.6 -31L235.1 -31L235.1 -31.7L231.7 -31.5L231.8 -32.6L235.8 -32.7Q236.3 -33.3 237.4 -33.3L237.4 -33.3L237.3 -33.8Q237.3 -34.5 237.8 -35.4L237.8 -35.4Q238.9 -36.6 240.4 -36.6L240.4 -36.6Q241 -36.6 241.6 -36.3L241.6 -36.3Q242.6 -35.8 242.9 -35L242.9 -35Q244.8 -35.1 247 -34.3Q249.3 -33.5 249.4 -32.3L249.4 -32.3Q249.2 -30.2 249.9 -28.4L249.9 -28.4L253.9 -17.5Q255.8 -20.6 257.1 -22.9Q258.3 -25.3 259.1 -28L259.1 -28Q258.3 -28.8 257.1 -29Q255.9 -29.3 253.2 -29.4L253.2 -29.4L253.3 -30.3L256.8 -30.1L256.6 -30.8L253.3 -30.8L253.4 -31.6L256.6 -31.6L256.6 -32.2L253.4 -32.1L253.4 -33L257 -33.2Q257.9 -33.8 258.6 -33.8L258.6 -33.8Q258.6 -33.9 258.6 -34.4L258.6 -34.4Q258.6 -35.1 259 -35.8L259 -35.8Q259.5 -36.5 260.3 -36.8Q261.1 -37.2 262.1 -37.2L262.1 -37.2Q263 -37.2 264.1 -36.8L264.1 -36.8Q264.9 -36.5 265.2 -35.6L265.2 -35.6Q265.6 -35.7 266.3 -35.7L266.3 -35.7Q268.1 -35.7 269.4 -35Q270.6 -34.2 270.7 -33.3L270.7 -33.3Q270.7 -32.2 271.4 -29.6L271.4 -29.6L271.8 -27.5L272 -27L272.6 -24.6Q273.4 -21 274.5 -18.2L274.5 -18.2Q275.1 -16.3 275.1 -16.3L275.1 -16.3Q276.2 -17.2 277.3 -19.5Q278.5 -21.8 279.9 -25.3L279.9 -25.3Q280.9 -27.6 281.2 -29Q281.4 -30.3 281.5 -31.1Q281.5 -31.9 281.5 -32.2L281.5 -32.2Q281.7 -35 285 -34.7L285 -34.7Q285 -35 286.2 -35.4Q287.4 -35.8 287.8 -36L287.8 -36Q288.3 -36.2 288.9 -36.2L288.9 -36.2Q289.7 -36.2 290.4 -35.9Q291.1 -35.5 291.5 -34.9L291.5 -34.9Q292 -34.3 292 -33.5L292 -33.5Q292 -33.1 291.8 -32.6L291.8 -32.6Q292.8 -32.6 293.5 -31.9L293.5 -31.9L297.4 -31.5L297.4 -30.6L294 -30.9L293.9 -30.2L297.5 -30L297.5 -29.2L293.8 -29.4L293.7 -28.6L297.5 -28.6L297.5 -27.6Q294.7 -27.7 293.4 -27.5Q292.2 -27.3 291.3 -26.6L291.3 -26.6Q290.6 -25.7 288.7 -21.7L288.7 -21.7Q285.8 -15 280.3 -6.7L280.3 -6.7Q279.2 -5.2 279.1 -4.8L279.1 -4.8Q278.6 -2.6 276.6 -2.6L276.6 -2.6Q275.5 -2.6 273.8 -3.3L273.8 -3.3Q273 -2.3 271.8 -2.3L271.8 -2.3Q270.9 -2.3 270.2 -2.8L270.2 -2.8Q270.1 -3 269.3 -3.6Q268.5 -4.2 268.1 -4.9Q267.7 -5.6 268 -6.1L268 -6.1L263.8 -16.6L255.8 -5.7Q255.5 -5.2 254.7 -3.9Q253.9 -2.6 253.3 -2.4L253.3 -2.4Q252.8 -2.2 252.1 -2.2L252.1 -2.2Q251.4 -2.2 250.7 -2.5Q250.1 -2.8 249.8 -3.4L249.8 -3.4Q248.7 -3.1 247.7 -3.1L247.7 -3.1Q245 -3.1 244.9 -5.8L244.9 -5.8Q244.9 -6.4 245.1 -6.7L245.1 -6.7M320.7 -36.1Q327.4 -36.1 332.2 -33.6Q336.9 -31.2 336.9 -26.1L336.9 -26.1Q336.9 -20.6 333.8 -18.2Q330.7 -15.9 323 -15.9L323 -15.9Q319.9 -15.9 315.6 -16.4L315.6 -16.4L313.6 -16.6Q314.2 -14.2 315.8 -12.8Q317.4 -11.5 320.3 -11.2L320.3 -11.2Q321.6 -11 323.8 -11L323.8 -11Q328.5 -11 331.6 -12.4Q334.8 -13.8 337.5 -16.5L337.5 -16.5L338.5 -15.3Q336.6 -14 335.8 -13.2Q335 -12.3 335 -11.3L335 -11.3Q335 -10.8 335.1 -10.6L335.1 -10.6Q335.6 -8.6 335.6 -7.5L335.6 -7.5Q335.6 -5.9 334.4 -5.2L334.4 -5.2Q332.2 -3.9 328.4 -3.1L328.4 -3.1Q324.1 -2.2 322.1 -2.3L322.1 -2.3Q321.2 -2.3 321.2 -3L321.2 -3Q321.2 -3.2 321.4 -3.4Q321.5 -3.6 321.8 -3.6L321.8 -3.6Q324.4 -3.6 325.8 -3.8L325.8 -3.8Q326.3 -3.8 326.3 -4.3L326.3 -4.3Q326.3 -4.6 326.1 -4.8Q325.8 -5 325.5 -5L325.5 -5Q323.8 -4.7 322.2 -4.7L322.2 -4.7Q321.4 -4.7 319.4 -4.9L319.4 -4.9L319 -4.9Q318.4 -4.9 318.3 -4.6L318.3 -4.6L318.3 -4.5Q318.3 -4.1 319 -3.9L319 -3.9L320 -3.8Q320.2 -3.8 320.3 -3.6Q320.4 -3.4 320.4 -3.2L320.4 -3.2Q320.4 -3 320.2 -2.7Q320 -2.5 319.7 -2.6L319.7 -2.6Q310.6 -3.2 305.6 -6.7Q300.6 -10.2 300.6 -18.5L300.6 -18.5Q300.6 -24.3 303.6 -28.3Q306.7 -32.2 311.4 -34.2Q316 -36.1 320.7 -36.1L320.7 -36.1M319.9 -28.1Q318 -27.9 316.3 -26.8Q314.6 -25.6 313.8 -23.4L313.8 -23.4Q316 -23.2 318.2 -23.2L318.2 -23.2Q320.9 -23.2 322 -23.4L322 -23.4Q323.3 -23.4 323.9 -24.2Q324.6 -24.9 324.6 -25.9L324.6 -25.9Q324.6 -27.5 321.4 -28L321.4 -28Q321 -28.1 319.9 -28.1L319.9 -28.1M340.3 -45L345.3 -43L345.4 -44.1L340.6 -45.8L341 -46.9L345.8 -45.3L346.1 -46.2L341.4 -47.6L342 -48.8L347.2 -47.2Q347.8 -47.4 348.6 -47.4L348.6 -47.4Q348.9 -47.4 349.7 -47.3L349.7 -47.3Q350 -49 351.4 -49.9L351.4 -49.9Q352.5 -50.6 353.8 -50.6L353.8 -50.6Q355.6 -50.6 356.6 -49.4L356.6 -49.4Q357.8 -48.2 357.7 -47L357.7 -47Q361 -46 361 -43.6L361 -43.6Q361 -43.2 360.7 -42.1L360.7 -42.1Q359.8 -39.3 359.8 -36.6L359.8 -36.6L359.8 -32.1Q364.4 -35.5 370.6 -36.1L370.6 -36.1Q372.3 -36.2 373.1 -36.2L373.1 -36.2Q387.3 -36.2 387.3 -19.6L387.3 -19.6Q387.3 -15.5 384.7 -11.9Q382.1 -8.2 377.5 -6Q372.9 -3.7 367.3 -3.4L367.3 -3.4L367.2 -3.4Q366.8 -3.4 366.6 -3.7Q366.4 -3.9 366.4 -4.2L366.4 -4.2Q366.4 -4.7 366.8 -4.7L366.8 -4.7Q367.4 -4.8 367.7 -4.9Q368 -5 368.2 -5L368.2 -5Q368.8 -5.1 368.8 -5.7L368.8 -5.7Q368.8 -6.1 368.5 -6.3Q368.2 -6.6 367.8 -6.5L367.8 -6.5Q365.5 -6.2 363.1 -6.2L363.1 -6.2Q362 -6.2 361.7 -6.2L361.7 -6.2L361.4 -6.3Q361 -6.3 360.9 -6.1Q360.7 -5.8 360.7 -5.5L360.7 -5.5Q360.7 -5 361.2 -4.7L361.2 -4.7Q361.9 -4.4 364.4 -4.6L364.4 -4.6L364.5 -4.6Q365.2 -4.6 365.2 -3.9L365.2 -3.9Q365.2 -3.3 364.4 -3.1L364.4 -3.1Q363.9 -3 362.8 -3L362.8 -3Q359.6 -3 357.2 -3.8L357.2 -3.8Q353.7 -2.1 350.9 -2.1L350.9 -2.1Q349.2 -2.1 348.2 -2.9Q347.2 -3.8 347.2 -5.5L347.2 -5.5L347.1 -36.5Q347.1 -38.1 346.6 -39L346.6 -39Q346 -40.4 344.6 -41.4Q343.2 -42.4 339.8 -43.9L339.8 -43.9L340.3 -45M359.9 -12.8Q363.6 -11.5 365.8 -11.5L365.8 -11.5Q369.5 -11.5 371.3 -13.9Q373.1 -16.3 373.1 -20.4L373.1 -20.4Q373.1 -23.5 372.3 -25.3Q371.5 -27.1 369.4 -27.1L369.4 -27.1Q367.4 -27.1 364.7 -24.9Q362 -22.7 359.8 -19.4L359.8 -19.4L359.9 -12.8z" style="" fill="#006eb8" id="namepathdata"/></g></g>
              <g class="slogan"><g id="sloganDefaultGroup"/></g>
            </g>
            <g class="border">
            </g>
          </g>
          
          <defs id="defs">
            <mask xmlns="http://www.w3.org/2000/svg" id="mask">
                <rect id="showAll" fill="white" x="-85.7" y="-63.05" width="74.7" height="74.7"/>
                <rect id="hideNameBg" fill="black" x="0" y="0" width="0" height="0" stroke-width="2" stroke="black"/>
                <rect id="hideSloganBg" fill="black" x="0" y="0" width="0" height="0" stroke-width="2" stroke="black"/>
            <path d="M5.1 -3.8Q3.6 -4.2 3.6 -5.7L3.6 -5.7Q3.6 -6.7 4.2 -8.5L4.2 -8.5Q4.6 -9.7 4.6 -10.2L4.6 -10.2Q4.6 -11.2 3.9 -11.9Q3.1 -12.6 1.5 -13.6L1.5 -13.6L1.8 -14.9Q6 -12.6 10.8 -11.7Q15.5 -10.7 19.4 -10.7L19.4 -10.7Q25.4 -10.7 25.4 -13L25.4 -13Q25.4 -14 23.5 -14.6Q21.6 -15.1 17.5 -15.8L17.5 -15.8Q2.7 -18.1 2.6 -23.8L2.6 -23.8Q2.3 -28 5.5 -30.9Q8.6 -33.8 13.3 -35.2Q18 -36.6 22.3 -36.3L22.3 -36.3Q25.2 -36.2 28.8 -36.2L28.8 -36.2Q31.9 -36.2 33.4 -36.5L33.4 -36.5Q34.2 -36.6 34.5 -36.6L34.5 -36.6Q35.8 -36.2 36 -34.1L36 -34.1Q36.6 -34 37.2 -33.3Q37.8 -32.6 37.7 -31.7L37.7 -31.7Q37.5 -30.3 36.8 -29.6Q36 -28.8 35.3 -28.8L35.3 -28.8Q35.4 -28.6 35.7 -28.4Q36 -28.1 36 -27.8L36 -27.8Q36 -27.6 35.5 -27L35.5 -27Q35.4 -26.6 35.6 -25.2Q35.8 -23.8 35.8 -23.6L35.8 -23.6L35 -23.4L34.6 -26.3L34.1 -26.2L34.6 -23.4L33.8 -23.1L33.4 -26.2L32.9 -25.9L33.4 -23.1L32.6 -23Q32.3 -24.6 32.1 -25.2Q31.8 -25.9 31.4 -26.2Q31 -26.5 29.8 -27L29.8 -27Q26.2 -28.4 21 -28.4L21 -28.4Q18.8 -28.4 17.2 -27.9Q15.5 -27.4 15.5 -26.4L15.5 -26.4Q15.5 -25.4 17.2 -24.9Q18.8 -24.4 22.8 -23.9L22.8 -23.9Q28.7 -23.3 33.4 -21.2Q38.1 -19 38.2 -14.6L38.2 -14.6Q38.5 -8.1 32.6 -5.5Q26.7 -3 16.7 -2.5L16.7 -2.5L16.6 -2.5Q16.2 -2.5 16 -2.7Q15.8 -3 15.8 -3.2L15.8 -3.2Q15.8 -3.7 16.2 -3.7L16.2 -3.7L17.4 -3.7Q18 -3.7 18 -4.1L18 -4.1Q18 -4.6 16.8 -4.6L16.8 -4.6Q13.7 -4.6 10.9 -5.1L10.9 -5.1L10.6 -5.1Q10.1 -5.1 10 -4.7Q10 -4.3 10.4 -4.2L10.4 -4.2Q11.9 -3.8 14.2 -3.7L14.2 -3.7Q14.6 -3.6 14.8 -3.4Q15 -3.2 15 -3L15 -3Q15 -2.5 14.1 -2.5L14.1 -2.5Q12.3 -2.6 9.6 -2.9Q7 -3.3 5.1 -3.8L5.1 -3.8M48.2 -20.5Q48.2 -25.4 47.4 -27.4L47.4 -27.4Q46.7 -28.6 45.2 -29.4Q43.8 -30.3 40.2 -31.4L40.2 -31.4L40.7 -32.6L45.7 -30.8L45.7 -31.7L41 -33.2L41.4 -34.2L46 -32.8L46.4 -33.5L41.8 -34.8L42.3 -35.8L47.5 -34.5Q47.9 -34.6 48.8 -34.6L48.8 -34.6Q49.6 -34.6 49.9 -34.6L49.9 -34.6Q50.1 -35.9 51.5 -36.8L51.5 -36.8Q52.6 -37.4 53.8 -37.4L53.8 -37.4Q55.7 -37.4 56.7 -36.3L56.7 -36.3Q58.2 -35 58.2 -34.2L58.2 -34.2Q60.6 -33.6 60.6 -31.9L60.6 -31.9Q60.6 -31.4 60.6 -31L60.6 -31Q63.4 -33.6 66.3 -34.6Q69.2 -35.6 72.9 -35.6L72.9 -35.6Q77.3 -35.6 79.6 -34.1Q81.8 -32.6 82.7 -29.8L82.7 -29.8Q87 -33.4 90 -34.6Q93 -35.8 97 -35.8L97 -35.8Q107.4 -35.8 107.4 -21.8L107.4 -21.8L107.4 -5.8Q105.6 -4.6 103.2 -3.8Q100.8 -3 98.9 -3L98.9 -3Q95.2 -3 95.2 -5.9L95.2 -5.9L95.3 -20Q95.2 -23.3 94.7 -24.6Q94.2 -25.8 93 -25.8L93 -25.8Q91.2 -25.8 89.3 -24.2Q87.4 -22.6 83.4 -17.3L83.4 -17.3L83.4 -5.8Q81.6 -4.6 79.2 -3.8Q76.8 -3 74.9 -3L74.9 -3Q71.2 -3 71.2 -5.9L71.2 -5.9L71.3 -20Q71.2 -23.3 70.7 -24.6Q70.2 -25.8 69 -25.8L69 -25.8Q67.4 -25.8 65.6 -24.4Q63.8 -23 60.4 -18.6L60.4 -18.6L60.4 -6Q58.4 -4.7 56 -3.9Q53.6 -3.1 51.8 -3.1L51.8 -3.1Q48.2 -3.1 48.2 -6.1L48.2 -6.1L48.2 -20.5M110.6 -12.2Q110.6 -15 112 -17.2Q113.4 -19.4 115.8 -20.8L115.8 -20.8L116.5 -23.8L115.8 -24L115.3 -20.6L114.3 -20.8L115 -24.2L114.4 -24.2L113.8 -20.9L113 -21Q113.7 -24.5 113.4 -25L113.4 -25Q112.8 -25.6 112.8 -26.2L112.8 -26.2Q112.8 -26.7 113.2 -27.1Q113.6 -27.5 113.7 -27.7L113.7 -27.7Q112.7 -27.7 111.9 -28.3Q111 -29 110.8 -30.5L110.8 -30.5Q110.7 -31.5 111.4 -32.4Q112.1 -33.2 112.8 -33.4L112.8 -33.4Q112.9 -34.3 113.3 -35.1Q113.8 -35.9 114.6 -36.2L114.6 -36.2L115 -36.2Q115.5 -36.2 115.8 -36.1L115.8 -36.1Q116.8 -35.9 117.6 -35.9L117.6 -35.9Q118.9 -35.9 120.5 -36Q122.1 -36.2 123.9 -36.2L123.9 -36.2Q124.6 -36.3 125.8 -36.4Q126.9 -36.5 128.6 -36.6L128.6 -36.6Q129.3 -36.6 130.7 -36.6L130.7 -36.6Q138.2 -36.6 142.7 -32.5Q147.1 -28.3 147.2 -21.1L147.2 -21.1L147.2 -20.2L147 -13Q147.2 -11.8 147.6 -11.4Q147.9 -10.9 148.8 -10.9L148.8 -10.9Q149.8 -10.9 151.6 -11.4L151.6 -11.4L151.9 -10.5Q151.7 -10.3 150.8 -9.9Q149.9 -9.4 149.4 -8.8Q149 -8.2 149.4 -7.6L149.4 -7.6Q149.8 -7 149.8 -5.9L149.8 -5.9Q149.8 -4.6 149 -3.4Q148.3 -2.2 146.7 -1.9L146.7 -1.9Q145.8 -1.7 144.8 -1.6Q143.8 -1.6 143.2 -1.7L143.2 -1.7Q142.9 -1.8 142.7 -2Q142.5 -2.2 142.5 -2.3L142.5 -2.3Q142.5 -2.6 142.6 -2.8Q142.8 -3 143.1 -3L143.1 -3Q145 -3 146.5 -3.2L146.5 -3.2Q146.9 -3.4 146.9 -3.8L146.9 -3.8Q146.9 -4.1 146.5 -4.3Q146.2 -4.5 145.5 -4.4L145.5 -4.4Q145 -4.3 143.9 -4.3L143.9 -4.3Q142.2 -4.3 141 -4.6L141 -4.6Q140.6 -4.6 140.2 -4.6L140.2 -4.6Q139.5 -4.6 139.4 -4.3L139.4 -4.3L139.4 -4.1Q139.4 -3.6 140 -3.4L140 -3.4L141.2 -3.2Q141.5 -3.2 141.5 -2.6L141.5 -2.6Q141.5 -2 140.9 -2.1L140.9 -2.1Q138.6 -2.2 137.1 -3.1Q135.6 -3.9 134.6 -6.9L134.6 -6.9Q134.1 -6.6 132.7 -5.9L132.7 -5.9Q130.2 -4.6 127.8 -3.8Q125.4 -3 121.9 -3L121.9 -3Q117.8 -3 114.2 -5Q110.6 -6.9 110.6 -12.2L110.6 -12.2M127.6 -23.3Q132.4 -23 134.6 -23L134.6 -23L134.6 -23.6Q134.6 -25.7 132.8 -26.7Q130.9 -27.8 128 -27.8L128 -27.8Q125 -27.8 122.2 -26.8L122.2 -26.8Q119.3 -25.8 118.3 -24.8Q117.4 -23.7 116.9 -21.4L116.9 -21.4Q121.4 -23.5 127.6 -23.3L127.6 -23.3M126.1 -10.8Q128.8 -10.8 134.4 -14.3L134.4 -14.3L134.4 -15.5Q131.8 -16.7 128.9 -16.7L128.9 -16.7Q126.6 -16.7 125.2 -15.8Q123.8 -14.9 123.8 -13.1L123.8 -13.1Q123.8 -10.8 126.1 -10.8L126.1 -10.8M157.8 -20.5Q157.8 -25.4 156.9 -27.4L156.9 -27.4Q156.2 -28.6 154.8 -29.4Q153.3 -30.3 149.7 -31.4L149.7 -31.4L150.2 -32.6L155.2 -30.8L155.2 -31.7L150.5 -33.2L151 -34.2L155.5 -32.8L155.9 -33.5L151.3 -34.8L151.8 -35.8L157 -34.5Q157.4 -34.6 158.3 -34.6L158.3 -34.6Q159.1 -34.6 159.4 -34.6L159.4 -34.6Q159.6 -35.9 161 -36.8L161 -36.8Q162.2 -37.4 163.4 -37.4L163.4 -37.4Q165.2 -37.4 166.2 -36.3L166.2 -36.3Q167.8 -35 167.7 -34.2L167.7 -34.2Q170.2 -33.6 170.2 -31.9L170.2 -31.9Q170.2 -31.1 169.7 -30L169.7 -30Q169.5 -29.6 169.5 -28.8L169.5 -28.8Q169.5 -28.1 169.6 -27.8L169.6 -27.8Q173.6 -30.5 177.7 -31.9L177.7 -31.9Q178.3 -32.2 178.3 -32.6L178.3 -32.6Q178.3 -33 178 -33.1Q177.7 -33.3 177.2 -33.1L177.2 -33.1Q174.2 -32 172.3 -30.9L172.3 -30.9Q171.8 -30.6 171.5 -30.5Q171.2 -30.5 171 -30.8L171 -30.8Q170.9 -31.1 170.9 -31.2L170.9 -31.2Q170.9 -31.5 171.5 -31.9L171.5 -31.9Q172.9 -32.8 176.6 -34.3Q180.4 -35.8 184.6 -36.5L184.6 -36.5Q184.8 -36.6 185.3 -36.6L185.3 -36.6Q186.8 -36.6 187.8 -35.4Q188.7 -34.3 188.7 -32.5L188.7 -32.5Q188.7 -28.5 193.8 -29L193.8 -29Q194 -28.2 193.9 -26.8L193.9 -26.8Q184 -26.2 175.3 -22L175.3 -22Q174.7 -21.7 173.2 -20.9Q171.6 -20.2 169.9 -19.1L169.9 -19.1L169.9 -5.2Q167.9 -3.9 165.5 -3.1Q163.1 -2.3 161.3 -2.3L161.3 -2.3Q157.8 -2.3 157.8 -5.3L157.8 -5.3L157.8 -20.5M204 -12Q203.7 -15.5 203.7 -22.5L203.7 -22.5Q203.6 -23.6 203.6 -25.8L203.6 -25.8Q200.2 -25.1 197.4 -25.1L197.4 -25.1Q196.1 -25.1 195 -26.2Q193.9 -27.2 193.9 -28.6L193.9 -28.6Q193.9 -30.5 196.3 -31.7L196.3 -31.7L191.8 -33.9L192.6 -34.7L197 -32.6L197.7 -33.3L192.9 -35.4L193.4 -36.4L198.3 -34.2L198.9 -34.8L193.9 -37L194.5 -37.8L199.5 -35.9Q200.9 -35.5 203.2 -35.5L203.2 -35.5Q203.1 -37.3 202.6 -38.6L202.6 -38.6Q202.2 -39.4 202.2 -40.1L202.2 -40.1Q202.2 -41.1 203.1 -41.8Q204 -42.4 205.3 -42.7L205.3 -42.7Q205.2 -43.7 206.1 -44.6Q207 -45.6 208.3 -45.7L208.3 -45.7Q211.8 -45.8 212.5 -43L212.5 -43Q212.9 -43.5 213.8 -44Q214.7 -44.4 215.7 -44.4L215.7 -44.4Q216.5 -44.4 217.3 -44L217.3 -44Q217.8 -43.8 219.4 -44.3Q221 -44.8 222 -45.2L222 -45.2L222.6 -44.2L218.4 -42.9L218.8 -42.2L222.7 -43.7L223.2 -42.7L219.1 -41.4L219.5 -40.6L223.4 -42.1L223.9 -41.1Q220.3 -39.8 219.1 -39Q217.8 -38.1 217.4 -36L217.4 -36Q217 -33.9 217 -34.2L217 -34.2L221.3 -34.2Q221.5 -34.2 221.7 -34.4Q221.8 -34.6 221.8 -34.8L221.8 -34.8Q221.8 -35.3 221.4 -35.3L221.4 -35.3L219.3 -35.3Q218.6 -35.3 218.6 -35.9L218.6 -35.9Q218.6 -36.2 218.8 -36.3Q219 -36.5 219.3 -36.5L219.3 -36.5L224 -36.5Q225.1 -37.9 227 -37.9L227 -37.9Q228.2 -37.9 229 -37.2Q229.9 -36.4 229.9 -35.3L229.9 -35.3Q229.9 -34 229 -32.8L229 -32.8Q231.2 -30.8 231.2 -28.9L231.2 -28.9Q231.2 -27.5 230 -26.6Q228.7 -25.8 226.7 -25.8L226.7 -25.8Q225.8 -25.8 224.4 -26Q223.1 -26.2 222.6 -26.2L222.6 -26.2Q219.2 -26.8 216.6 -27.1L216.6 -27.1Q216.6 -23 216.6 -20.9L216.6 -20.9Q216.8 -16.9 218.4 -14.8Q219.9 -12.6 223.6 -12.6L223.6 -12.6Q228.3 -12.6 235.1 -16.7L235.1 -16.7L235.4 -15.2Q233.4 -13.7 232.4 -11.4Q231.4 -9.1 231.4 -7.4L231.4 -7.4Q231.4 -5.5 231.1 -4.6Q230.9 -3.6 229.9 -2.9Q228.9 -2.2 226.7 -1.8L226.7 -1.8Q224.7 -1.4 222.2 -1.1Q219.8 -0.8 218.8 -0.8L218.8 -0.8Q217.4 -0.8 217.4 -1.6L217.4 -1.6Q217.4 -2 217.7 -2.3Q218.1 -2.6 218.6 -2.6L218.6 -2.6Q220.8 -2.6 222.7 -3L222.7 -3Q223.4 -3.1 223.4 -3.7L223.4 -3.7Q223.4 -4 223.1 -4.2Q222.8 -4.5 222.2 -4.4L222.2 -4.4Q220.6 -4.1 218.6 -4.1L218.6 -4.1Q217.6 -4.1 215 -4.2L215 -4.2Q214.2 -4.2 213.8 -4.1Q213.4 -4 213.4 -3.7L213.4 -3.7L213.4 -3.5Q213.4 -3.1 214 -2.9L214 -2.9Q214.1 -2.9 215.7 -2.7L215.7 -2.7Q216.2 -2.7 216.2 -1.9L216.2 -1.9Q216.2 -1.5 216 -1.2Q215.7 -1 215.2 -1L215.2 -1Q213.3 -1 210.8 -2.2Q208.3 -3.4 206.3 -5.8Q204.3 -8.3 204 -12L204 -12M245.1 -6.7L239.7 -22.5Q238.3 -26.2 237.4 -27.1L237.4 -27.1Q236.8 -27.9 235.5 -28.3Q234.2 -28.6 231.4 -28.7L231.4 -28.7L231.6 -29.6L235.4 -29.4L235.1 -30.1L231.5 -30.2L231.6 -31L235.1 -31L235.1 -31.7L231.7 -31.5L231.8 -32.6L235.8 -32.7Q236.3 -33.3 237.4 -33.3L237.4 -33.3L237.3 -33.8Q237.3 -34.5 237.8 -35.4L237.8 -35.4Q238.9 -36.6 240.4 -36.6L240.4 -36.6Q241 -36.6 241.6 -36.3L241.6 -36.3Q242.6 -35.8 242.9 -35L242.9 -35Q244.8 -35.1 247 -34.3Q249.3 -33.5 249.4 -32.3L249.4 -32.3Q249.2 -30.2 249.9 -28.4L249.9 -28.4L253.9 -17.5Q255.8 -20.6 257.1 -22.9Q258.3 -25.3 259.1 -28L259.1 -28Q258.3 -28.8 257.1 -29Q255.9 -29.3 253.2 -29.4L253.2 -29.4L253.3 -30.3L256.8 -30.1L256.6 -30.8L253.3 -30.8L253.4 -31.6L256.6 -31.6L256.6 -32.2L253.4 -32.1L253.4 -33L257 -33.2Q257.9 -33.8 258.6 -33.8L258.6 -33.8Q258.6 -33.9 258.6 -34.4L258.6 -34.4Q258.6 -35.1 259 -35.8L259 -35.8Q259.5 -36.5 260.3 -36.8Q261.1 -37.2 262.1 -37.2L262.1 -37.2Q263 -37.2 264.1 -36.8L264.1 -36.8Q264.9 -36.5 265.2 -35.6L265.2 -35.6Q265.6 -35.7 266.3 -35.7L266.3 -35.7Q268.1 -35.7 269.4 -35Q270.6 -34.2 270.7 -33.3L270.7 -33.3Q270.7 -32.2 271.4 -29.6L271.4 -29.6L271.8 -27.5L272 -27L272.6 -24.6Q273.4 -21 274.5 -18.2L274.5 -18.2Q275.1 -16.3 275.1 -16.3L275.1 -16.3Q276.2 -17.2 277.3 -19.5Q278.5 -21.8 279.9 -25.3L279.9 -25.3Q280.9 -27.6 281.2 -29Q281.4 -30.3 281.5 -31.1Q281.5 -31.9 281.5 -32.2L281.5 -32.2Q281.7 -35 285 -34.7L285 -34.7Q285 -35 286.2 -35.4Q287.4 -35.8 287.8 -36L287.8 -36Q288.3 -36.2 288.9 -36.2L288.9 -36.2Q289.7 -36.2 290.4 -35.9Q291.1 -35.5 291.5 -34.9L291.5 -34.9Q292 -34.3 292 -33.5L292 -33.5Q292 -33.1 291.8 -32.6L291.8 -32.6Q292.8 -32.6 293.5 -31.9L293.5 -31.9L297.4 -31.5L297.4 -30.6L294 -30.9L293.9 -30.2L297.5 -30L297.5 -29.2L293.8 -29.4L293.7 -28.6L297.5 -28.6L297.5 -27.6Q294.7 -27.7 293.4 -27.5Q292.2 -27.3 291.3 -26.6L291.3 -26.6Q290.6 -25.7 288.7 -21.7L288.7 -21.7Q285.8 -15 280.3 -6.7L280.3 -6.7Q279.2 -5.2 279.1 -4.8L279.1 -4.8Q278.6 -2.6 276.6 -2.6L276.6 -2.6Q275.5 -2.6 273.8 -3.3L273.8 -3.3Q273 -2.3 271.8 -2.3L271.8 -2.3Q270.9 -2.3 270.2 -2.8L270.2 -2.8Q270.1 -3 269.3 -3.6Q268.5 -4.2 268.1 -4.9Q267.7 -5.6 268 -6.1L268 -6.1L263.8 -16.6L255.8 -5.7Q255.5 -5.2 254.7 -3.9Q253.9 -2.6 253.3 -2.4L253.3 -2.4Q252.8 -2.2 252.1 -2.2L252.1 -2.2Q251.4 -2.2 250.7 -2.5Q250.1 -2.8 249.8 -3.4L249.8 -3.4Q248.7 -3.1 247.7 -3.1L247.7 -3.1Q245 -3.1 244.9 -5.8L244.9 -5.8Q244.9 -6.4 245.1 -6.7L245.1 -6.7M320.7 -36.1Q327.4 -36.1 332.2 -33.6Q336.9 -31.2 336.9 -26.1L336.9 -26.1Q336.9 -20.6 333.8 -18.2Q330.7 -15.9 323 -15.9L323 -15.9Q319.9 -15.9 315.6 -16.4L315.6 -16.4L313.6 -16.6Q314.2 -14.2 315.8 -12.8Q317.4 -11.5 320.3 -11.2L320.3 -11.2Q321.6 -11 323.8 -11L323.8 -11Q328.5 -11 331.6 -12.4Q334.8 -13.8 337.5 -16.5L337.5 -16.5L338.5 -15.3Q336.6 -14 335.8 -13.2Q335 -12.3 335 -11.3L335 -11.3Q335 -10.8 335.1 -10.6L335.1 -10.6Q335.6 -8.6 335.6 -7.5L335.6 -7.5Q335.6 -5.9 334.4 -5.2L334.4 -5.2Q332.2 -3.9 328.4 -3.1L328.4 -3.1Q324.1 -2.2 322.1 -2.3L322.1 -2.3Q321.2 -2.3 321.2 -3L321.2 -3Q321.2 -3.2 321.4 -3.4Q321.5 -3.6 321.8 -3.6L321.8 -3.6Q324.4 -3.6 325.8 -3.8L325.8 -3.8Q326.3 -3.8 326.3 -4.3L326.3 -4.3Q326.3 -4.6 326.1 -4.8Q325.8 -5 325.5 -5L325.5 -5Q323.8 -4.7 322.2 -4.7L322.2 -4.7Q321.4 -4.7 319.4 -4.9L319.4 -4.9L319 -4.9Q318.4 -4.9 318.3 -4.6L318.3 -4.6L318.3 -4.5Q318.3 -4.1 319 -3.9L319 -3.9L320 -3.8Q320.2 -3.8 320.3 -3.6Q320.4 -3.4 320.4 -3.2L320.4 -3.2Q320.4 -3 320.2 -2.7Q320 -2.5 319.7 -2.6L319.7 -2.6Q310.6 -3.2 305.6 -6.7Q300.6 -10.2 300.6 -18.5L300.6 -18.5Q300.6 -24.3 303.6 -28.3Q306.7 -32.2 311.4 -34.2Q316 -36.1 320.7 -36.1L320.7 -36.1M319.9 -28.1Q318 -27.9 316.3 -26.8Q314.6 -25.6 313.8 -23.4L313.8 -23.4Q316 -23.2 318.2 -23.2L318.2 -23.2Q320.9 -23.2 322 -23.4L322 -23.4Q323.3 -23.4 323.9 -24.2Q324.6 -24.9 324.6 -25.9L324.6 -25.9Q324.6 -27.5 321.4 -28L321.4 -28Q321 -28.1 319.9 -28.1L319.9 -28.1M340.3 -45L345.3 -43L345.4 -44.1L340.6 -45.8L341 -46.9L345.8 -45.3L346.1 -46.2L341.4 -47.6L342 -48.8L347.2 -47.2Q347.8 -47.4 348.6 -47.4L348.6 -47.4Q348.9 -47.4 349.7 -47.3L349.7 -47.3Q350 -49 351.4 -49.9L351.4 -49.9Q352.5 -50.6 353.8 -50.6L353.8 -50.6Q355.6 -50.6 356.6 -49.4L356.6 -49.4Q357.8 -48.2 357.7 -47L357.7 -47Q361 -46 361 -43.6L361 -43.6Q361 -43.2 360.7 -42.1L360.7 -42.1Q359.8 -39.3 359.8 -36.6L359.8 -36.6L359.8 -32.1Q364.4 -35.5 370.6 -36.1L370.6 -36.1Q372.3 -36.2 373.1 -36.2L373.1 -36.2Q387.3 -36.2 387.3 -19.6L387.3 -19.6Q387.3 -15.5 384.7 -11.9Q382.1 -8.2 377.5 -6Q372.9 -3.7 367.3 -3.4L367.3 -3.4L367.2 -3.4Q366.8 -3.4 366.6 -3.7Q366.4 -3.9 366.4 -4.2L366.4 -4.2Q366.4 -4.7 366.8 -4.7L366.8 -4.7Q367.4 -4.8 367.7 -4.9Q368 -5 368.2 -5L368.2 -5Q368.8 -5.1 368.8 -5.7L368.8 -5.7Q368.8 -6.1 368.5 -6.3Q368.2 -6.6 367.8 -6.5L367.8 -6.5Q365.5 -6.2 363.1 -6.2L363.1 -6.2Q362 -6.2 361.7 -6.2L361.7 -6.2L361.4 -6.3Q361 -6.3 360.9 -6.1Q360.7 -5.8 360.7 -5.5L360.7 -5.5Q360.7 -5 361.2 -4.7L361.2 -4.7Q361.9 -4.4 364.4 -4.6L364.4 -4.6L364.5 -4.6Q365.2 -4.6 365.2 -3.9L365.2 -3.9Q365.2 -3.3 364.4 -3.1L364.4 -3.1Q363.9 -3 362.8 -3L362.8 -3Q359.6 -3 357.2 -3.8L357.2 -3.8Q353.7 -2.1 350.9 -2.1L350.9 -2.1Q349.2 -2.1 348.2 -2.9Q347.2 -3.8 347.2 -5.5L347.2 -5.5L347.1 -36.5Q347.1 -38.1 346.6 -39L346.6 -39Q346 -40.4 344.6 -41.4Q343.2 -42.4 339.8 -43.9L339.8 -43.9L340.3 -45M359.9 -12.8Q363.6 -11.5 365.8 -11.5L365.8 -11.5Q369.5 -11.5 371.3 -13.9Q373.1 -16.3 373.1 -20.4L373.1 -20.4Q373.1 -23.5 372.3 -25.3Q371.5 -27.1 369.4 -27.1L369.4 -27.1Q367.4 -27.1 364.7 -24.9Q362 -22.7 359.8 -19.4L359.8 -19.4L359.9 -12.8z" style="stroke-width: 0;" fill="#000000" id="masknamepathdata" stroke="#000000" paint-order="stroke" transform="matrix(1,0,0,1,0,0)"/></mask>
          </defs>
          
        </g>
        </svg>